<svg width="30" height="40" viewBox="0 0 30 40" fill="none" xmlns="http://www.w3.org/2000/svg">
<path d="M25.9338 9.2887L25.9069 9.27288L25.8447 9.25391C25.8698 9.27503 25.9011 9.28727 25.9338 9.2887Z" fill="black"/>
<path d="M26.3269 12.0898L26.2969 12.0983L26.3269 12.0898Z" fill="black"/>
<path d="M25.9414 9.26975C25.9383 9.26935 25.9352 9.26862 25.9322 9.26758C25.9321 9.2696 25.9321 9.27164 25.9322 9.27366C25.9356 9.27322 25.9387 9.27186 25.9414 9.26975Z" fill="black"/>
<path d="M26.3003 12.0731L26.3457 12.0473L26.3625 12.0378L26.3778 12.0215C26.349 12.0339 26.3228 12.0514 26.3003 12.0731Z" fill="black"/>
<path d="M26.0098 9.34367L25.9656 9.3015L25.9355 9.28516C25.9517 9.31365 25.9783 9.33466 26.0098 9.34367Z" fill="black"/>
<path d="M14.867 36.5098C14.8316 36.5251 14.8006 36.549 14.7769 36.5794L14.8047 36.5614C14.8237 36.5441 14.8507 36.5235 14.867 36.5098Z" fill="black"/>
<path d="M21.3426 35.2359C21.3426 35.1958 21.3231 35.2032 21.3279 35.3455C21.3279 35.3339 21.3326 35.3223 21.3348 35.3113C21.3374 35.2859 21.3394 35.2611 21.3426 35.2359Z" fill="black"/>
<path d="M20.6707 36.5098C20.6353 36.5251 20.6043 36.549 20.5806 36.5794L20.6086 36.5614C20.6275 36.5441 20.6544 36.5235 20.6707 36.5098Z" fill="black"/>
<path d="M10.3127 36.8157C10.2858 36.7924 10.2529 36.7771 10.2178 36.7715C10.2462 36.7852 10.2747 36.7989 10.2937 36.8094L10.3127 36.8157Z" fill="black"/>
<path d="M9.29182 35.8329C9.28762 35.7914 9.27487 35.7512 9.25439 35.7148C9.2689 35.7527 9.28105 35.7914 9.29076 35.8308L9.29182 35.8329Z" fill="black"/>
<path d="M16.1748 18.2647C14.7673 18.8672 13.1701 19.5504 11.1 19.5504C10.234 19.5486 9.37223 19.4298 8.53809 19.1972L9.9698 33.8965C10.0205 34.5109 10.3004 35.0837 10.7539 35.5013C11.2074 35.9189 11.8014 36.1506 12.4179 36.1505C12.4179 36.1505 14.4478 36.2559 15.1252 36.2559C15.8543 36.2559 18.0403 36.1505 18.0403 36.1505C18.6567 36.1505 19.2505 35.9186 19.7039 35.5012C20.1573 35.0836 20.4372 34.5108 20.4878 33.8965L22.0213 17.6532C21.336 17.4191 20.6444 17.2637 19.8647 17.2637C18.5164 17.2631 17.4299 17.7276 16.1748 18.2647Z" fill="#2FC56D"/>
<path d="M4.104 12.0039L4.12826 12.0265L4.14407 12.036C4.13189 12.024 4.11846 12.0132 4.104 12.0039Z" fill="black"/>
<path d="M28.6428 10.6429L28.4273 9.55538C28.2338 8.57964 27.7947 7.65767 26.7931 7.30501C26.4721 7.19221 26.1079 7.14371 25.8617 6.91019C25.6155 6.67667 25.5427 6.31399 25.4858 5.97768C25.3804 5.36039 25.2813 4.74259 25.1732 4.12637C25.08 3.59659 25.0061 3.00144 24.7631 2.51542C24.4468 1.86283 23.7905 1.48118 23.1379 1.22868C22.8035 1.10385 22.4623 0.998247 22.1159 0.912394C20.4853 0.482248 18.7712 0.324106 17.0938 0.233966C15.0804 0.122872 13.0618 0.156343 11.0533 0.334122C9.5583 0.470123 7.98373 0.634592 6.56309 1.15172C6.04386 1.34096 5.50881 1.56815 5.11399 1.96931C4.62954 2.46219 4.4714 3.22443 4.82512 3.83907C5.07656 4.27555 5.50249 4.58392 5.95425 4.78792C6.54268 5.05078 7.15722 5.25079 7.78764 5.38464C9.54302 5.77262 11.3611 5.92496 13.1545 5.9898C15.1421 6.07003 17.133 6.00501 19.1112 5.79529C19.6003 5.74153 20.0887 5.67703 20.5761 5.60183C21.1501 5.5138 21.5186 4.76315 21.3493 4.24022C21.1469 3.61504 20.6029 3.37255 19.9877 3.46691C19.8971 3.48115 19.8069 3.49432 19.7163 3.5075L19.6509 3.51699C19.4425 3.54335 19.2341 3.56795 19.0257 3.59079C18.5953 3.63718 18.1636 3.67514 17.7311 3.70466C16.7621 3.77213 15.7907 3.80323 14.8196 3.8048C13.8656 3.8048 12.9109 3.77792 11.9589 3.71519C11.5245 3.68672 11.0912 3.65053 10.659 3.6066C10.4623 3.58605 10.2662 3.56444 10.0702 3.54019L9.88354 3.51646L9.84296 3.51067L9.6495 3.48272C9.25415 3.42316 8.85879 3.35463 8.46764 3.27187C8.42818 3.26311 8.39288 3.24116 8.36758 3.20963C8.34227 3.1781 8.32848 3.13887 8.32848 3.09844C8.32848 3.05802 8.34227 3.01879 8.36758 2.98726C8.39288 2.95573 8.42818 2.93376 8.46764 2.92501H8.47503C8.81398 2.85279 9.15556 2.79112 9.4982 2.73735C9.61242 2.71943 9.72698 2.70186 9.84191 2.68463H9.84506C10.0596 2.6704 10.2752 2.63192 10.4887 2.60662C12.3461 2.41341 14.2147 2.34755 16.0811 2.40947C16.9873 2.43583 17.8929 2.48907 18.7948 2.58079C18.9888 2.60083 19.1818 2.62191 19.3747 2.64563C19.4485 2.65459 19.5228 2.66514 19.5971 2.6741L19.7468 2.69571C20.1833 2.76072 20.6175 2.83962 21.0495 2.93239C21.6893 3.07156 22.5112 3.1169 22.7959 3.81799C22.8865 4.04044 22.9276 4.28767 22.9777 4.52119L23.0415 4.81902C23.0432 4.82437 23.0443 4.82983 23.0451 4.83536C23.196 5.53822 23.3468 6.24107 23.498 6.94392C23.509 6.99584 23.5093 7.04949 23.4987 7.10153C23.4882 7.15355 23.4669 7.20284 23.4365 7.24631C23.406 7.28979 23.3669 7.32652 23.3217 7.35422C23.2763 7.38191 23.2258 7.39998 23.1732 7.40729H23.169L23.0768 7.41994L22.9856 7.43206C22.6968 7.46966 22.4075 7.5048 22.1179 7.53749C21.5475 7.6025 20.9763 7.65873 20.4042 7.70617C19.2673 7.8007 18.1282 7.86274 16.9867 7.89226C16.4051 7.90771 15.8237 7.91492 15.2425 7.91387C12.9288 7.91204 10.6172 7.77757 8.31899 7.51113C8.07018 7.48161 7.82138 7.44998 7.57257 7.41782C7.7655 7.4426 7.43235 7.39885 7.36488 7.38936C7.20673 7.36722 7.04859 7.3442 6.89044 7.3203C6.35962 7.2407 5.83195 7.14266 5.30218 7.05674C4.6617 6.95131 4.04916 7.00402 3.46984 7.3203C2.99429 7.58053 2.60941 7.97957 2.36653 8.4642C2.11667 8.98079 2.04234 9.54325 1.93059 10.0983C1.81884 10.6534 1.64488 11.2507 1.71077 11.8205C1.85257 13.0503 2.71234 14.0498 3.949 14.2733C5.11241 14.4842 6.28212 14.6549 7.45502 14.8004C12.0624 15.3647 16.717 15.4322 21.3388 15.0018C21.7152 14.9667 22.0911 14.9283 22.4664 14.8869C22.5836 14.874 22.7023 14.8875 22.8136 14.9265C22.9249 14.9653 23.0261 15.0286 23.1098 15.1117C23.1935 15.1948 23.2576 15.2956 23.2972 15.4066C23.337 15.5177 23.3513 15.6362 23.3393 15.7535L23.2223 16.891C22.9865 19.1898 22.7507 21.4883 22.5148 23.7866C22.2689 26.2002 22.0212 28.6135 21.7721 31.0268C21.7018 31.7065 21.6315 32.386 21.5612 33.0653C21.4938 33.7342 21.4843 34.4243 21.3572 35.0853C21.157 36.1249 20.4532 36.7631 19.4264 36.9967C18.4856 37.2108 17.5245 37.3231 16.5597 37.3319C15.4901 37.3378 14.4211 37.2903 13.3516 37.2961C12.2098 37.3025 10.8113 37.197 9.92993 36.3473C9.15556 35.6009 9.04856 34.4322 8.94313 33.4217C8.80256 32.0837 8.66322 30.746 8.52511 29.4085L7.75021 21.9711L7.2489 17.1588C7.24047 17.0793 7.23203 17.0007 7.22412 16.9206C7.16403 16.3466 6.75761 15.7846 6.11713 15.8135C5.56891 15.8379 4.94583 16.3038 5.01015 16.9206L5.38177 20.4883L6.15034 27.8682C6.36928 29.9645 6.58769 32.0611 6.80557 34.158C6.84775 34.5597 6.88728 34.9625 6.93156 35.3642C7.17247 37.5591 8.84876 38.742 10.9246 39.0753C12.1371 39.2702 13.3791 39.3103 14.6093 39.3303C16.1866 39.3556 17.7795 39.4163 19.3309 39.1306C21.6298 38.7089 23.3546 37.1738 23.6008 34.7927C23.6711 34.1053 23.7413 33.4178 23.8116 32.73C24.0453 30.4556 24.2787 28.181 24.5116 25.9062L25.2739 18.4735L25.6234 15.0671C25.6408 14.8982 25.7122 14.7395 25.8268 14.6142C25.9415 14.489 26.0935 14.4041 26.2602 14.3718C26.9176 14.2437 27.5459 14.025 28.0135 13.5247C28.7578 12.7283 28.9059 11.6898 28.6428 10.6429ZM3.91527 11.3777C3.92529 11.373 3.90683 11.4589 3.89893 11.4989C3.89735 11.4383 3.90051 11.3846 3.91527 11.3777ZM3.97906 11.8711C3.98433 11.8674 4.00013 11.8885 4.01648 11.9138C3.9917 11.8906 3.97589 11.8732 3.97852 11.8711H3.97906ZM4.04178 11.9539C4.06445 11.9924 4.07658 12.0166 4.04178 11.9539V11.9539ZM4.16777 12.0562H4.17093C4.17093 12.0598 4.17673 12.0635 4.17884 12.0673C4.17535 12.0631 4.17146 12.0595 4.16724 12.0562H4.16777ZM26.2296 11.9033C25.9935 12.1278 25.6377 12.2322 25.286 12.2844C21.3431 12.8695 17.3426 13.1658 13.3563 13.035C10.5035 12.9375 7.68063 12.6207 4.85621 12.2217C4.57946 12.1827 4.27953 12.1321 4.08923 11.9281C3.73077 11.5433 3.90683 10.7683 4.00013 10.3034C4.08554 9.87746 4.24895 9.30973 4.75553 9.2491C5.54624 9.15634 6.46452 9.49002 7.2468 9.60862C8.18862 9.75235 9.13395 9.86744 10.0828 9.95389C14.1323 10.3229 18.2498 10.2654 22.2813 9.72564C23.0162 9.6269 23.7483 9.51215 24.4779 9.38142C25.1279 9.26492 25.8485 9.04617 26.2412 9.71932C26.5106 10.1779 26.5465 10.7915 26.5048 11.3097C26.492 11.5355 26.3933 11.7478 26.2291 11.9033H26.2296Z" fill="black"/>
</svg>
